<svg height="512pt" viewBox="0 -6 512 512" width="512pt" xmlns="http://www.w3.org/2000/svg"><path d="m0 0v350h512v-350zm482 320h-452v-290h452zm0 0"/><path d="m240 232c0-25.234375-14.464844-47.140625-35.53125-57.90625 9.675781-11.351562 15.53125-26.046875 15.53125-42.09375 0-35.839844-29.160156-65-65-65s-65 29.160156-65 65c0 16.046875 5.855469 30.742188 15.53125 42.09375-21.066406 10.765625-35.53125 32.671875-35.53125 57.90625v41h170zm-85-135c19.300781 0 35 15.699219 35 35s-15.699219 35-35 35-35-15.699219-35-35 15.699219-35 35-35zm55 146h-110v-11c0-19.300781 15.699219-35 35-35h40c19.300781 0 35 15.699219 35 35zm0 0"/><path d="m436.453125 145.453125-21.210937-21.210937-58.621094 58.621093-30.242188-30.242187-21.214844 21.214844 51.457032 51.453124zm0 0"/><path d="m477 395h-25v-15h-30v15h-376.214844l-45 45 45 45h376.214844v15h30v-15h25c19.300781 0 35-15.699219 35-35v-20c0-19.300781-15.699219-35-35-35zm-405 60h-13.785156l-15-15 15-15h13.785156zm350 0h-320v-30h320zm60-5c0 2.757812-2.242188 5-5 5h-25v-30h25c2.757812 0 5 2.242188 5 5zm0 0"/></svg>