<svg height="512pt" viewBox="0 0 512 512" width="512pt" xmlns="http://www.w3.org/2000/svg"><path d="m320 63v-18c0-24.8125-20.1875-45-45-45h-230c-24.8125 0-45 20.1875-45 45v422c0 24.8125 20.1875 45 45 45h230c24.8125 0 45-20.1875 45-45v-74h192v-330zm-30 404c0 8.269531-6.730469 15-15 15h-230c-8.269531 0-15-6.730469-15-15v-422c0-8.269531 6.730469-15 15-15h230c8.269531 0 15 6.730469 15 15v18h-108v330h108zm192-104h-270v-270h270zm0 0"/><path d="m272 153h30v-30h-60v60h30zm0 0"/><path d="m402 123h50v30h-50zm0 0"/><path d="m452 273h-30v30h-25v30h55zm0 0"/><path d="m302 303h-30v-30h-30v60h60zm0 0"/><path d="m332 123h40v30h-40zm0 0"/><path d="m452 183h-30v30h-25v30h55zm0 0"/><path d="m302 273h35v60h30v-90h-35v-30h35v-30h-65v30h-60v30h60zm0 0"/><path d="m88 422h144v30h-144zm0 0"/><path d="m118 78c0 8.285156-6.714844 15-15 15s-15-6.714844-15-15 6.714844-15 15-15 15 6.714844 15 15zm0 0"/></svg>