<?xml version="1.0" encoding="UTF-8" standalone="no"?>
<svg
   xmlns:dc="http://purl.org/dc/elements/1.1/"
   xmlns:cc="http://creativecommons.org/ns#"
   xmlns:rdf="http://www.w3.org/1999/02/22-rdf-syntax-ns#"
   xmlns:svg="http://www.w3.org/2000/svg"
   xmlns="http://www.w3.org/2000/svg"
   xmlns:sodipodi="http://sodipodi.sourceforge.net/DTD/sodipodi-0.dtd"
   xmlns:inkscape="http://www.inkscape.org/namespaces/inkscape"
   height="496pt"
   viewBox="0 0 496.39086 496"
   width="496pt"
   version="1.1"
   id="svg36"
   sodipodi:docname="sello.svg"
   inkscape:version="1.0.2 (394de47547, 2021-03-26)">
  <metadata
     id="metadata42">
    <rdf:RDF>
      <cc:Work
         rdf:about="">
        <dc:format>image/svg+xml</dc:format>
        <dc:type
           rdf:resource="http://purl.org/dc/dcmitype/StillImage" />
        <dc:title></dc:title>
      </cc:Work>
    </rdf:RDF>
  </metadata>
  <defs
     id="defs40" />
  <sodipodi:namedview
     pagecolor="#ffffff"
     bordercolor="#666666"
     borderopacity="1"
     objecttolerance="10"
     gridtolerance="10"
     guidetolerance="10"
     inkscape:pageopacity="0"
     inkscape:pageshadow="2"
     inkscape:window-width="1366"
     inkscape:window-height="710"
     id="namedview38"
     showgrid="false"
     inkscape:zoom="0.40146169"
     inkscape:cx="370.90796"
     inkscape:cy="415.87145"
     inkscape:window-x="0"
     inkscape:window-y="0"
     inkscape:window-maximized="1"
     inkscape:current-layer="svg36" />
  <path
     d="m460.582031 132.53125c-.175781 1.679688-.4375 3.347656-.785156 5-1.542969 7.28125 1.863281 14.710938 8.390625 18.289062 10.414062 5.523438 18.015625 15.183594 20.941406 26.605469 2.984375 11.460938 1.105469 23.644531-5.191406 33.671875-3.902344 6.371094-3.210938 14.535156 1.707031 20.15625 7.847657 8.832032 11.667969 20.523438 10.558594 32.28125-1.136719 11.835938-7.066406 22.695313-16.410156 30.046875-5.871094 4.640625-8.070313 12.542969-5.4375 19.550781 4.378906 11 3.984375 23.328126-1.082031 34.03125-5.070313 10.800782-14.335938 19.0625-25.644532 22.867188-7.070312 2.464844-11.785156 9.167969-11.707031 16.660156.234375 11.835938-4.363281 23.261719-12.738281 31.632813-8.371094 8.375-19.796875 12.972656-31.636719 12.738281-7.488281-.074219-14.191406 4.636719-16.65625 11.707031-3.804687 11.3125-12.066406 20.574219-22.867187 25.644531-10.703126 5.066407-23.03125 5.460938-34.03125 1.082032-7.007813-2.632813-14.910157-.433594-19.550782 5.4375-7.351562 9.34375-18.210937 15.273437-30.046875 16.410156-11.757812 1.113281-23.449219-2.710938-32.28125-10.558594-5.621093-4.917968-13.785156-5.609375-20.15625-1.707031-10.027343 6.296875-22.210937 8.175781-33.671875 5.191406-11.421875-2.925781-21.082031-10.527343-26.605468-20.941406-3.605469-6.519531-11.058594-9.902344-18.339844-8.320313-1.652344.347657-3.320313.609376-5 .785157zm0 0"
     fill="#e64c3c"
     id="path2"
     style="fill:#3f51b5;fill-opacity:1" />
  <path
     d="m364.035156 35.984375-328.242187 328.246094c.171875-1.679688.425781-3.347657.769531-5 1.542969-7.28125-1.863281-14.710938-8.390625-18.289063-10.414063-5.523437-18.015625-15.183594-20.9375-26.605468-2.988281-11.460938-1.109375-23.644532 5.1875-33.671876 3.902344-6.371093 3.210937-14.535156-1.707031-20.15625-7.832032-8.835937-11.644532-20.527343-10.523438-32.28125 1.136719-11.839843 7.066406-22.695312 16.410156-30.046874 5.878907-4.636719 8.082032-12.542969 5.453126-19.550782-4.375-11.003906-3.984376-23.328125 1.085937-34.03125 5.066406-10.800781 14.332031-19.0625 25.640625-22.867187 7.058594-2.476563 11.753906-9.179688 11.675781-16.660157-.234375-11.835937 4.363281-23.261718 12.738281-31.632812 8.371094-8.375 19.792969-12.972656 31.632813-12.738281 7.519531.09375 14.25-4.636719 16.707031-11.742188 3.816406-11.292969 12.078125-20.539062 22.871094-25.601562 10.699219-5.074219 23.023438-5.476563 34.03125-1.109375 7.003906 2.632812 14.910156.4375 19.550781-5.433594 7.347657-9.351562 18.207031-15.289062 30.042969-16.425781 11.761719-1.113281 23.453125 2.707031 32.28125 10.554687 5.625 4.917969 13.789062 5.609375 20.15625 1.707032 10.03125-6.296876 22.214844-8.175782 33.675781-5.1875 11.417969 2.921874 21.078125 10.523437 26.605469 20.9375 3.585938 6.511718 11.015625 9.90625 18.285156 8.355468 1.652344-.34375 3.324219-.597656 5-.769531zm0 0"
     fill="#e64c3c"
     id="path4"
     style="fill:#3f51b5;fill-opacity:1" />
  <path
     d="m172.761719 420.351562c70.847656 31.039063 153.476562 15.464844 208.171875-39.226562 54.691406-54.691406 70.261718-137.324219 39.226562-208.171875zm0 0"
     fill="#c03a2b"
     id="path6"
     style="fill:#5a189a;fill-opacity:1" />
  <path
     d="m76.214844 323.808594c-31.035156-70.851563-15.464844-153.480469 39.230468-208.171875 54.691407-54.691407 137.320313-70.265625 208.167969-39.226563zm0 0"
     fill="#c03a2b"
     id="path8"
     style="fill:#5a189a;fill-opacity:1" />
  <path
     d="m102.710938 297.320312c-18.660157-55.253906-4.375-116.3125 36.863281-157.554687 41.242187-41.238281 102.296875-55.523437 157.554687-36.859375zm0 0"
     fill="#d1d4d1"
     id="path10" />
  <path
     d="m199.25 393.855469c55.253906 18.664062 116.3125 4.378906 157.550781-36.863281 41.242188-41.238282 55.527344-102.296876 36.863281-157.550782zm0 0"
     fill="#d1d4d1"
     id="path12" />
  <g
     fill="#4482c3"
     id="g34">
    <text
       xml:space="preserve"
       style="font-weight:bold;font-size:97.5427px;line-height:1.25;font-family:Muli;-inkscape-font-specification:'Muli Bold';stroke-width:1.82893;fill:#3f51b5;fill-opacity:1;"
       x="-240.35585"
       y="382.81903"
       id="text869"
       transform="rotate(-44.533974)"><tspan
         sodipodi:role="line"
         id="tspan867"
         x="-240.35585"
         y="382.81903"
         style="font-style:normal;font-variant:normal;font-weight:bold;font-stretch:normal;font-family:Montserrat;-inkscape-font-specification:'Montserrat Bold';stroke-width:1.82893;fill:#3f51b5;fill-opacity:1;">FIRMADO</tspan></text>
  </g>
</svg>
